{
    "asset" : {
        "generator" : "Khronos glTF Blender I/O v1.6.16",
        "version" : "2.0"
    },
    "scene" : 0,
    "scenes" : [
        {
            "name" : "Scene",
            "nodes" : [
                0
            ]
        }
    ],
    "nodes" : [
        {
            "mesh" : 0,
            "name" : "F:\\Desktop\\NuakeDump\\LibreQuake-master\\freeassets\\adaya\\g_shot1",
            "translation" : [
                0,
                -32.49329376220703,
                0
            ]
        }
    ],
    "materials" : [
        {
            "doubleSided" : true,
            "name" : "F:\\Desktop\\NuakeDump\\LibreQuake-master\\freeassets\\adaya\\g_shot1",
            "pbrMetallicRoughness" : {
                "baseColorTexture" : {
                    "index" : 0
                },
                "metallicFactor" : 0,
                "roughnessFactor" : 0
            }
        }
    ],
    "meshes" : [
        {
            "name" : "F:\\Desktop\\NuakeDump\\LibreQuake-master\\freeassets\\adaya\\g_shot1",
            "primitives" : [
                {
                    "attributes" : {
                        "POSITION" : 0,
                        "NORMAL" : 1,
                        "TANGENT" : 2,
                        "TEXCOORD_0" : 3
                    },
                    "indices" : 4,
                    "material" : 0
                }
            ]
        }
    ],
    "textures" : [
        {
            "sampler" : 0,
            "source" : 0
        }
    ],
    "images" : [
        {
            "bufferView" : 5,
            "mimeType" : "image/png",
            "name" : "F:\\Desktop\\NuakeDump\\LibreQuake-master\\freeassets\\adaya\\g_shot1"
        }
    ],
    "accessors" : [
        {
            "bufferView" : 0,
            "componentType" : 5126,
            "count" : 464,
            "max" : [
                26.482450485229492,
                38.42000961303711,
                3.355332374572754
            ],
            "min" : [
                -26.20574378967285,
                25.010671615600586,
                -3.4075918197631836
            ],
            "type" : "VEC3"
        },
        {
            "bufferView" : 1,
            "componentType" : 5126,
            "count" : 464,
            "type" : "VEC3"
        },
        {
            "bufferView" : 2,
            "componentType" : 5126,
            "count" : 464,
            "type" : "VEC4"
        },
        {
            "bufferView" : 3,
            "componentType" : 5126,
            "count" : 464,
            "type" : "VEC2"
        },
        {
            "bufferView" : 4,
            "componentType" : 5123,
            "count" : 504,
            "type" : "SCALAR"
        }
    ],
    "bufferViews" : [
        {
            "buffer" : 0,
            "byteLength" : 5568,
            "byteOffset" : 0
        },
        {
            "buffer" : 0,
            "byteLength" : 5568,
            "byteOffset" : 5568
        },
        {
            "buffer" : 0,
            "byteLength" : 7424,
            "byteOffset" : 11136
        },
        {
            "buffer" : 0,
            "byteLength" : 3712,
            "byteOffset" : 18560
        },
        {
            "buffer" : 0,
            "byteLength" : 1008,
            "byteOffset" : 22272
        },
        {
            "buffer" : 0,
            "byteLength" : 28091,
            "byteOffset" : 23280
        }
    ],
    "samplers" : [
        {
            "magFilter" : 9728,
            "minFilter" : 9984
        }
    ],
    "buffers" : [
        {
            "byteLength" : 51372,
            "uri" : "data:application/octet-stream;base64,"
        }
    ]
}
