{
    "asset" : {
        "generator" : "Khronos glTF Blender I/O v1.6.16",
        "version" : "2.0"
    },
    "scene" : 0,
    "scenes" : [
        {
            "name" : "Scene",
            "nodes" : [
                0
            ]
        }
    ],
    "nodes" : [
        {
            "mesh" : 0,
            "name" : "F:\\Desktop\\NuakeDump\\LibreQuake-master\\freeassets\\bryan\\suit\\su"
        }
    ],
    "materials" : [
        {
            "doubleSided" : true,
            "name" : "F:\\Desktop\\NuakeDump\\LibreQuake-master\\freeassets\\bryan\\suit\\su",
            "pbrMetallicRoughness" : {
                "baseColorTexture" : {
                    "index" : 0
                },
                "metallicFactor" : 0,
                "roughnessFactor" : 0
            }
        }
    ],
    "meshes" : [
        {
            "name" : "F:\\Desktop\\NuakeDump\\LibreQuake-master\\freeassets\\bryan\\suit\\su",
            "primitives" : [
                {
                    "attributes" : {
                        "POSITION" : 0,
                        "NORMAL" : 1,
                        "TANGENT" : 2,
                        "TEXCOORD_0" : 3
                    },
                    "indices" : 4,
                    "material" : 0
                }
            ]
        }
    ],
    "textures" : [
        {
            "sampler" : 0,
            "source" : 0
        }
    ],
    "images" : [
        {
            "bufferView" : 5,
            "mimeType" : "image/png",
            "name" : "F:\\Desktop\\NuakeDump\\LibreQuake-master\\freeassets\\bryan\\suit\\su"
        }
    ],
    "accessors" : [
        {
            "bufferView" : 0,
            "componentType" : 5126,
            "count" : 1048,
            "max" : [
                5.765054702758789,
                46.62862014770508,
                8.591883659362793
            ],
            "min" : [
                -4.04386043548584,
                1.0971440076828003,
                -8.569031715393066
            ],
            "type" : "VEC3"
        },
        {
            "bufferView" : 1,
            "componentType" : 5126,
            "count" : 1048,
            "type" : "VEC3"
        },
        {
            "bufferView" : 2,
            "componentType" : 5126,
            "count" : 1048,
            "type" : "VEC4"
        },
        {
            "bufferView" : 3,
            "componentType" : 5126,
            "count" : 1048,
            "type" : "VEC2"
        },
        {
            "bufferView" : 4,
            "componentType" : 5123,
            "count" : 1068,
            "type" : "SCALAR"
        }
    ],
    "bufferViews" : [
        {
            "buffer" : 0,
            "byteLength" : 12576,
            "byteOffset" : 0
        },
        {
            "buffer" : 0,
            "byteLength" : 12576,
            "byteOffset" : 12576
        },
        {
            "buffer" : 0,
            "byteLength" : 16768,
            "byteOffset" : 25152
        },
        {
            "buffer" : 0,
            "byteLength" : 8384,
            "byteOffset" : 41920
        },
        {
            "buffer" : 0,
            "byteLength" : 2136,
            "byteOffset" : 50304
        },
        {
            "buffer" : 0,
            "byteLength" : 36598,
            "byteOffset" : 52440
        }
    ],
    "samplers" : [
        {
            "magFilter" : 9728,
            "minFilter" : 9984
        }
    ],
    "buffers" : [
        {
            "byteLength" : 89040,
            "uri" : "data:application/octet-stream;base64,"
        }
    ]
}
